#N canvas 505 109 1100 612 10;
#X obj 803 23 scale_val;
#X obj 85 82 cnv 15 770 36 empty empty empty 20 12 0 14 -233017 -66577
0;
#X obj 84 50 cnv 15 770 30 empty empty empty 20 12 0 14 -233017 -66577
0;
#X obj 84 50 liste_valeurs;
#N canvas 99 101 336 206 loadbang 0;
#X obj 16 13 loadbang;
#X obj 34 39 delay 500;
#X msg 16 65 1;
#X msg 43 65 0;
#X obj 17 91 s toggle1;
#X obj 17 113 s toggle3;
#X obj 76 91 s toggle2;
#X obj 76 113 s toggle4;
#X obj 17 134 s toggle5;
#X obj 111 35 r allon;
#X obj 170 33 r alloff;
#X msg 233 30 \; pd dsp 1;
#X obj 182 75 delay 1000;
#X msg 201 116 1 3000;
#X obj 202 139 line 1 0;
#X obj 186 95 t b b;
#X msg 251 115 0;
#X obj 187 165 s mainvolume;
#X msg 283 115 0 7000;
#X obj 261 78 delay 2000;
#X msg 149 115 1 2000;
#X connect 0 0 2 0;
#X connect 0 0 1 0;
#X connect 0 0 11 0;
#X connect 0 0 12 0;
#X connect 1 0 3 0;
#X connect 2 0 4 0;
#X connect 2 0 5 0;
#X connect 2 0 6 0;
#X connect 2 0 7 0;
#X connect 2 0 8 0;
#X connect 3 0 4 0;
#X connect 3 0 5 0;
#X connect 3 0 6 0;
#X connect 3 0 7 0;
#X connect 3 0 8 0;
#X connect 9 0 2 0;
#X connect 9 0 20 0;
#X connect 10 0 3 0;
#X connect 10 0 19 0;
#X connect 12 0 15 0;
#X connect 13 0 14 0;
#X connect 14 0 17 0;
#X connect 15 0 13 0;
#X connect 15 1 16 0;
#X connect 16 0 14 0;
#X connect 18 0 14 0;
#X connect 19 0 18 0;
#X connect 20 0 14 0;
#X restore 724 23 pd loadbang;
#X obj 752 274 noteout;
#X floatatom 813 188 5 0 0 0 - - -;
#X floatatom 772 187 5 0 0 0 - - -;
#X floatatom 736 186 5 0 0 0 - - -;
#X obj 524 505 midiformat 5;
#X text 619 506 arg is channelnumber;
#X msg 524 319 88 127;
#X obj 524 539 midiout;
#X msg 537 345 90 88;
#X text 585 347 aftertouch/pitch pairs make poly aftertouch messages
;
#X text 588 373 controller val/ controller nr make control messages
;
#X text 578 319 pitch/velocity pairs make noteon messages;
#X msg 550 373 70 7;
#X floatatom 563 401 5 0 0 0 - - -;
#X text 609 400 program change message;
#X floatatom 572 426 5 0 0 0 - - -;
#X text 621 422 aftertouch;
#X floatatom 589 450 5 0 0 0 - - -;
#X text 634 448 pitch bend;
#X floatatom 603 476 5 0 0 0 - - -;
#X text 648 475 channel number (wraps around like n%16);
#X obj 482 233 noteout;
#X floatatom 546 189 5 0 0 0 - - -;
#X floatatom 505 188 5 0 0 0 - - -;
#X floatatom 469 187 5 0 0 0 - - -;
#X obj 363 232 noteout;
#X floatatom 427 188 5 0 0 0 - - -;
#X floatatom 386 187 5 0 0 0 - - -;
#X floatatom 339 187 5 0 0 0 - - -;
#X obj 223 235 noteout;
#X floatatom 287 191 5 0 0 0 - - -;
#X floatatom 246 190 5 0 0 0 - - -;
#X floatatom 203 189 5 0 0 0 - - -;
#X obj 459 139 r \$1-3note;
#X obj 326 143 r \$1-2note;
#X obj 185 146 r \$1-1note;
#X obj 257 146 r \$1-1vel;
#X obj 533 138 r \$1-3vel;
#X obj 398 142 r \$1-2vel;
#X obj 723 144 r \$1-note;
#X obj 790 145 r \$1-vel;
#X text 86 -3 tcp2midi derivative : Depending on configuration you
may need at startup need to manually increase velocity value to 127
!!;
#X text 848 186 channel;
#X text 759 202 velocity;
#X text 703 185 note;
#X text 792 -7;
#X text 329 408 Working advance midi patch for future versions.;
#X text 127 24 by Sam Neurohack and Pascale Gustin;
#X connect 6 0 5 2;
#X connect 7 0 5 1;
#X connect 8 0 5 0;
#X connect 9 0 12 0;
#X connect 11 0 9 0;
#X connect 13 0 9 1;
#X connect 17 0 9 2;
#X connect 18 0 9 3;
#X connect 20 0 9 4;
#X connect 22 0 9 5;
#X connect 24 0 9 6;
#X connect 27 0 26 2;
#X connect 28 0 26 1;
#X connect 29 0 26 0;
#X connect 31 0 30 2;
#X connect 32 0 30 1;
#X connect 33 0 30 0;
#X connect 35 0 34 2;
#X connect 36 0 34 1;
#X connect 37 0 34 0;
#X connect 38 0 29 0;
#X connect 39 0 33 0;
#X connect 40 0 37 0;
#X connect 41 0 36 0;
#X connect 42 0 28 0;
#X connect 43 0 32 0;
#X connect 44 0 8 0;
#X connect 45 0 7 0;
