#N canvas 90 100 1190 670 10;
#X obj 159 282 list split 1;
#X obj 39 274 list split 1;
#X obj 39 375 pack s f;
#X obj 52 251 list;
#X obj 172 261 list;
#X obj 74 150 moocow/bytes2any 128 0;
#X obj 144 98 unpack 0 0 0 0 0;
#X obj 74 198 t a b;
#X obj 159 308 t b b f;
#X obj 38 403 list trim;
#X obj -35 183 s ma_list;
#X obj 136 127 nbx 3 14 -1e+37 1e+37 0 0 empty empty empty 0 -8 0 10
-262144 -258113 -1 127 256;
#X obj 174 127 nbx 2 14 -1e+37 1e+37 0 0 empty empty empty 0 -8 0 10
-262144 -258113 -1 0 256;
#X obj 204 127 nbx 2 14 -1e+37 1e+37 0 0 empty empty empty 0 -8 0 10
-262144 -258113 -1 0 256;
#X obj 234 127 nbx 2 14 -1e+37 1e+37 0 0 empty empty empty 0 -8 0 10
-262144 -258113 -1 1 256;
#X obj 267 127 nbx 5 14 -1e+37 1e+37 0 0 empty empty empty 0 -8 0 10
-262144 -258113 -1 54319 256;
#X obj 325 127 nbx 2 14 -1e+37 1e+37 0 0 empty empty empty 0 -8 0 10
-262144 -258113 -1 1 256;
#X obj 74 70 mrpeach/tcpreceive 13856;
#X obj 40 476 s \$1-count;
#X obj 68 505 s \$1-signal;
#X obj 97 529 s \$1-1note;
#X obj 125 585 s \$1-1vel;
#X obj 154 633 s \$1-2note;
#X obj 651 286 list split 1;
#X obj 531 278 list split 1;
#X obj 531 379 pack s f;
#X obj 544 255 list;
#X obj 664 265 list;
#X obj 566 154 moocow/bytes2any 128 0;
#X obj 636 102 unpack 0 0 0 0 0;
#X obj 566 202 t a b;
#X obj 651 312 t b b f;
#X obj 530 407 list trim;
#X obj 628 127 nbx 3 14 -1e+37 1e+37 0 0 empty empty empty 0 -8 0 10
-262144 -258113 -1 0 256;
#X obj 666 127 nbx 2 14 -1e+37 1e+37 0 0 empty empty empty 0 -8 0 10
-262144 -258113 -1 0 256;
#X obj 696 127 nbx 2 14 -1e+37 1e+37 0 0 empty empty empty 0 -8 0 10
-262144 -258113 -1 0 256;
#X obj 726 127 nbx 2 14 -1e+37 1e+37 0 0 empty empty empty 0 -8 0 10
-262144 -258113 -1 0 256;
#X obj 759 127 nbx 5 14 -1e+37 1e+37 0 0 empty empty empty 0 -8 0 10
-262144 -258113 -1 0 256;
#X obj 817 127 nbx 2 14 -1e+37 1e+37 0 0 empty empty empty 0 -8 0 10
-262144 -258113 -1 0 256;
#X obj 772 472 s \$1-vel;
#X obj 531 468 s \$1-note;
#X obj 457 187 s ma_list2;
#X obj 566 74 mrpeach/tcpreceive 13857;
#X msg 74 175 list \$1 \$2 \$3 \$4 \$5 \$6 \$7 \$8 \$9 \$10;
#X msg 73 225 list cnt sig att med dlt tht lap hap lbt hbt;
#X obj 40 431 route cnt sig att med dlt;
#X obj 284 430 route tht lap hap lbt hbt;
#X obj 284 479 s \$1-2vel;
#X obj 312 528 s \$1-3note;
#X obj 341 576 s \$1-3vel;
#X obj 369 623 s \$1-lbeta;
#X obj 398 531 s \$1-hbeta;
#X msg 565 229 list lgm hgm;
#X msg 566 179 list \$1 \$2;
#X obj 532 435 route lgm;
#X obj 776 434 route hgm;
#X connect 0 0 8 0;
#X connect 0 1 4 1;
#X connect 1 0 2 0;
#X connect 1 1 3 1;
#X connect 2 0 9 0;
#X connect 3 0 1 0;
#X connect 4 0 0 0;
#X connect 5 0 10 0;
#X connect 5 0 43 0;
#X connect 6 0 11 0;
#X connect 6 1 12 0;
#X connect 6 2 13 0;
#X connect 6 3 14 0;
#X connect 6 4 15 0;
#X connect 7 0 0 0;
#X connect 7 1 44 0;
#X connect 8 0 4 0;
#X connect 8 1 3 0;
#X connect 8 2 2 1;
#X connect 9 0 45 0;
#X connect 9 0 46 0;
#X connect 17 0 5 0;
#X connect 17 1 6 0;
#X connect 17 2 16 0;
#X connect 23 0 31 0;
#X connect 23 1 27 1;
#X connect 24 0 25 0;
#X connect 24 1 26 1;
#X connect 25 0 32 0;
#X connect 26 0 24 0;
#X connect 27 0 23 0;
#X connect 28 0 53 0;
#X connect 28 0 41 0;
#X connect 29 0 33 0;
#X connect 29 1 34 0;
#X connect 29 2 35 0;
#X connect 29 3 36 0;
#X connect 29 4 37 0;
#X connect 30 0 23 0;
#X connect 30 1 52 0;
#X connect 31 0 27 0;
#X connect 31 1 26 0;
#X connect 31 2 25 1;
#X connect 32 0 54 0;
#X connect 32 0 55 0;
#X connect 42 0 28 0;
#X connect 42 1 29 0;
#X connect 42 2 38 0;
#X connect 43 0 7 0;
#X connect 44 0 3 1;
#X connect 45 0 18 0;
#X connect 45 1 19 0;
#X connect 45 2 20 0;
#X connect 45 3 21 0;
#X connect 45 4 22 0;
#X connect 46 0 47 0;
#X connect 46 1 48 0;
#X connect 46 2 49 0;
#X connect 46 3 50 0;
#X connect 46 4 51 0;
#X connect 52 0 26 1;
#X connect 53 0 30 0;
#X connect 54 0 40 0;
#X connect 55 0 39 0;
#X coords 0 -1 1 1 770 30 2 100 117;
